<svg width="139" height="24" viewBox="0 0 139 24" fill="none" xmlns="http://www.w3.org/2000/svg">
<path d="M3.97943 14.728H8.68343V17.5H0.388426V2.758H3.97943V14.728ZM9.68224 11.62C9.68224 10.416 9.90624 9.359 10.3542 8.449C10.8162 7.539 11.4392 6.839 12.2232 6.349C13.0072 5.859 13.8822 5.614 14.8482 5.614C15.6742 5.614 16.3952 5.782 17.0112 6.118C17.6412 6.454 18.1242 6.895 18.4602 7.441V5.782H22.0512V17.5H18.4602V15.841C18.1102 16.387 17.6202 16.828 16.9902 17.164C16.3742 17.5 15.6532 17.668 14.8272 17.668C13.8752 17.668 13.0072 17.423 12.2232 16.933C11.4392 16.429 10.8162 15.722 10.3542 14.812C9.90624 13.888 9.68224 12.824 9.68224 11.62ZM18.4602 11.641C18.4602 10.745 18.2082 10.038 17.7042 9.52C17.2142 9.002 16.6122 8.743 15.8982 8.743C15.1842 8.743 14.5752 9.002 14.0712 9.52C13.5812 10.024 13.3362 10.724 13.3362 11.62C13.3362 12.516 13.5812 13.23 14.0712 13.762C14.5752 14.28 15.1842 14.539 15.8982 14.539C16.6122 14.539 17.2142 14.28 17.7042 13.762C18.2082 13.244 18.4602 12.537 18.4602 11.641ZM31.7892 5.656C33.1612 5.656 34.2532 6.104 35.0652 7C35.8912 7.882 36.3042 9.1 36.3042 10.654V17.5H32.7342V11.137C32.7342 10.353 32.5312 9.744 32.1252 9.31C31.7192 8.876 31.1732 8.659 30.4872 8.659C29.8012 8.659 29.2552 8.876 28.8492 9.31C28.4432 9.744 28.2402 10.353 28.2402 11.137V17.5H24.6492V5.782H28.2402V7.336C28.6042 6.818 29.0942 6.412 29.7102 6.118C30.3262 5.81 31.0192 5.656 31.7892 5.656ZM38.0856 11.62C38.0856 10.416 38.3096 9.359 38.7576 8.449C39.2196 7.539 39.8426 6.839 40.6266 6.349C41.4106 5.859 42.2856 5.614 43.2516 5.614C44.0216 5.614 44.7216 5.775 45.3516 6.097C45.9956 6.419 46.4996 6.853 46.8636 7.399V1.96H50.4546V17.5H46.8636V15.82C46.5276 16.38 46.0446 16.828 45.4146 17.164C44.7986 17.5 44.0776 17.668 43.2516 17.668C42.2856 17.668 41.4106 17.423 40.6266 16.933C39.8426 16.429 39.2196 15.722 38.7576 14.812C38.3096 13.888 38.0856 12.824 38.0856 11.62ZM46.8636 11.641C46.8636 10.745 46.6116 10.038 46.1076 9.52C45.6176 9.002 45.0156 8.743 44.3016 8.743C43.5876 8.743 42.9786 9.002 42.4746 9.52C41.9846 10.024 41.7396 10.724 41.7396 11.62C41.7396 12.516 41.9846 13.23 42.4746 13.762C42.9786 14.28 43.5876 14.539 44.3016 14.539C45.0156 14.539 45.6176 14.28 46.1076 13.762C46.6116 13.244 46.8636 12.537 46.8636 11.641ZM54.8585 4.564C54.2285 4.564 53.7105 4.382 53.3045 4.018C52.9125 3.64 52.7165 3.178 52.7165 2.632C52.7165 2.072 52.9125 1.61 53.3045 1.246C53.7105 0.867999 54.2285 0.678999 54.8585 0.678999C55.4745 0.678999 55.9785 0.867999 56.3705 1.246C56.7765 1.61 56.9795 2.072 56.9795 2.632C56.9795 3.178 56.7765 3.64 56.3705 4.018C55.9785 4.382 55.4745 4.564 54.8585 4.564ZM56.6435 5.782V17.5H53.0525V5.782H56.6435ZM66.3858 5.656C67.7578 5.656 68.8498 6.104 69.6618 7C70.4878 7.882 70.9008 9.1 70.9008 10.654V17.5H67.3308V11.137C67.3308 10.353 67.1278 9.744 66.7218 9.31C66.3158 8.876 65.7698 8.659 65.0838 8.659C64.3978 8.659 63.8518 8.876 63.4458 9.31C63.0398 9.744 62.8368 10.353 62.8368 11.137V17.5H59.2458V5.782H62.8368V7.336C63.2008 6.818 63.6908 6.412 64.3068 6.118C64.9228 5.81 65.6158 5.656 66.3858 5.656ZM77.8482 5.614C78.6742 5.614 79.3952 5.782 80.0112 6.118C80.6412 6.454 81.1242 6.895 81.4602 7.441V5.782H85.0512V17.479C85.0512 18.557 84.8342 19.53 84.4002 20.398C83.9802 21.28 83.3292 21.98 82.4472 22.498C81.5792 23.016 80.4942 23.275 79.1922 23.275C77.4562 23.275 76.0492 22.862 74.9712 22.036C73.8932 21.224 73.2772 20.118 73.1232 18.718H76.6722C76.7842 19.166 77.0502 19.516 77.4702 19.768C77.8902 20.034 78.4082 20.167 79.0242 20.167C79.7662 20.167 80.3542 19.95 80.7882 19.516C81.2362 19.096 81.4602 18.417 81.4602 17.479V15.82C81.1102 16.366 80.6272 16.814 80.0112 17.164C79.3952 17.5 78.6742 17.668 77.8482 17.668C76.8822 17.668 76.0072 17.423 75.2232 16.933C74.4392 16.429 73.8162 15.722 73.3542 14.812C72.9062 13.888 72.6822 12.824 72.6822 11.62C72.6822 10.416 72.9062 9.359 73.3542 8.449C73.8162 7.539 74.4392 6.839 75.2232 6.349C76.0072 5.859 76.8822 5.614 77.8482 5.614ZM81.4602 11.641C81.4602 10.745 81.2082 10.038 80.7042 9.52C80.2142 9.002 79.6122 8.743 78.8982 8.743C78.1842 8.743 77.5752 9.002 77.0712 9.52C76.5812 10.024 76.3362 10.724 76.3362 11.62C76.3362 12.516 76.5812 13.23 77.0712 13.762C77.5752 14.28 78.1842 14.539 78.8982 14.539C79.6122 14.539 80.2142 14.28 80.7042 13.762C81.2082 13.244 81.4602 12.537 81.4602 11.641ZM89.8752 9.814V4.438H92.6892C94.8732 4.438 95.7972 5.446 95.7972 7.147C95.7972 8.785 94.8732 9.814 92.6892 9.814H89.8752ZM97.7502 7.147C97.7502 4.753 96.1332 2.863 92.6892 2.863H87.9642V17.5H89.8752V11.389H92.6892C96.3222 11.389 97.7502 9.373 97.7502 7.147ZM99.4113 11.704C99.4113 15.274 101.784 17.689 104.85 17.689C106.971 17.689 108.462 16.597 109.155 15.358V17.5H111.087V5.992H109.155V8.092C108.483 6.895 107.013 5.803 104.871 5.803C101.784 5.803 99.4113 8.113 99.4113 11.704ZM109.155 11.725C109.155 14.434 107.349 16.009 105.249 16.009C103.149 16.009 101.364 14.413 101.364 11.704C101.364 8.995 103.149 7.462 105.249 7.462C107.349 7.462 109.155 9.058 109.155 11.725ZM113.603 11.704C113.603 15.274 115.976 17.689 119.063 17.689C121.163 17.689 122.654 16.576 123.347 15.337V17.752C123.347 20.209 121.814 21.511 119.777 21.511C117.887 21.511 116.522 20.566 116.102 19.18H114.212C114.59 21.637 116.753 23.17 119.777 23.17C123.158 23.17 125.279 20.923 125.279 17.752V5.992H123.347V8.092C122.675 6.853 121.163 5.803 119.063 5.803C115.976 5.803 113.603 8.113 113.603 11.704ZM123.347 11.725C123.347 14.434 121.541 16.009 119.441 16.009C117.341 16.009 115.556 14.413 115.556 11.704C115.556 8.995 117.341 7.462 119.441 7.462C121.541 7.462 123.347 9.058 123.347 11.725ZM133.401 7.42C135.375 7.42 137.055 8.659 137.034 10.906H129.768C129.978 8.659 131.532 7.42 133.401 7.42ZM138.777 13.951H136.719C136.299 15.19 135.207 16.072 133.485 16.072C131.532 16.072 129.894 14.791 129.747 12.46H138.945C138.987 12.061 139.008 11.725 139.008 11.305C139.008 8.155 136.824 5.803 133.485 5.803C130.125 5.803 127.794 8.092 127.794 11.725C127.794 15.379 130.209 17.689 133.485 17.689C136.341 17.689 138.189 16.051 138.777 13.951Z" fill="#2D2D2D"/>
</svg>
