<svg width="176" height="33" viewBox="0 0 176 33" fill="none" xmlns="http://www.w3.org/2000/svg">
<g clip-path="url(#clip0_1164_3088)">
<path fill-rule="evenodd" clip-rule="evenodd" d="M0 16.4004C0 7.56384 7.16344 0.400391 16 0.400391C24.8366 0.400391 32 7.56384 32 16.4004C32 25.2369 24.8366 32.4004 16 32.4004C7.16344 32.4004 0 25.2369 0 16.4004Z" fill="#4E4D4D"/>
<path fill-rule="evenodd" clip-rule="evenodd" d="M22.6677 10.8999C23.4021 11.1014 23.9804 11.6952 24.1767 12.4492C24.5333 13.8157 24.5333 16.667 24.5333 16.667C24.5333 16.667 24.5333 19.5182 24.1767 20.8849C23.9804 21.6389 23.4021 22.2326 22.6677 22.4342C21.3369 22.8004 16 22.8004 16 22.8004C16 22.8004 10.6631 22.8004 9.33218 22.4342C8.59783 22.2326 8.0195 21.6389 7.82323 20.8849C7.46667 19.5182 7.46667 16.667 7.46667 16.667C7.46667 16.667 7.46667 13.8157 7.82323 12.4492C8.0195 11.6952 8.59783 11.1014 9.33218 10.8999C10.6631 10.5337 16 10.5337 16 10.5337C16 10.5337 21.3369 10.5337 22.6677 10.8999ZM14.4 14.267V19.6003L18.6667 16.9337L14.4 14.267Z" fill="white"/>
<path fill-rule="evenodd" clip-rule="evenodd" d="M48 16.4004C48 7.56384 55.1634 0.400391 64 0.400391C72.8366 0.400391 80 7.56384 80 16.4004C80 25.2369 72.8366 32.4004 64 32.4004C55.1634 32.4004 48 25.2369 48 16.4004Z" fill="#4E4D4D"/>
<path fill-rule="evenodd" clip-rule="evenodd" d="M64.0008 7.86719C61.6833 7.86719 61.3924 7.87732 60.4822 7.91874C59.5737 7.96034 58.9536 8.10417 58.4111 8.31519C57.8498 8.53315 57.3737 8.82471 56.8994 9.2992C56.4247 9.77352 56.1332 10.2496 55.9145 10.8107C55.7029 11.3534 55.5589 11.9737 55.5181 12.8818C55.4773 13.792 55.4667 14.0831 55.4667 16.4006C55.4667 18.7181 55.477 19.0081 55.5182 19.9183C55.56 20.8268 55.7038 21.4469 55.9147 21.9895C56.1328 22.5507 56.4244 23.0268 56.8989 23.5011C57.373 23.9758 57.8491 24.2681 58.41 24.486C58.9529 24.6971 59.5732 24.8409 60.4815 24.8825C61.3917 24.9239 61.6824 24.934 63.9997 24.934C66.3175 24.934 66.6074 24.9239 67.5176 24.8825C68.4261 24.8409 69.0469 24.6971 69.5898 24.486C70.1509 24.2681 70.6263 23.9758 71.1004 23.5011C71.5751 23.0268 71.8667 22.5507 72.0853 21.9896C72.2951 21.4469 72.4391 20.8266 72.4818 19.9185C72.5227 19.0083 72.5333 18.7181 72.5333 16.4006C72.5333 14.0831 72.5227 13.7922 72.4818 12.882C72.4391 11.9735 72.2951 11.3534 72.0853 10.8109C71.8667 10.2496 71.5751 9.77352 71.1004 9.2992C70.6258 8.82453 70.1511 8.53297 69.5893 8.31519C69.0453 8.10417 68.4249 7.96034 67.5164 7.91874C66.6062 7.87732 66.3164 7.86719 63.9981 7.86719H64.0008ZM63.2353 9.40496C63.4625 9.4046 63.716 9.40496 64.0008 9.40496C66.2792 9.40496 66.5492 9.41314 67.449 9.45402C68.281 9.49207 68.7326 9.63109 69.0334 9.74789C69.4316 9.90256 69.7155 10.0875 70.014 10.3861C70.3127 10.6848 70.4976 10.9692 70.6526 11.3675C70.7694 11.6679 70.9086 12.1195 70.9464 12.9515C70.9873 13.851 70.9962 14.1213 70.9962 16.3986C70.9962 18.676 70.9873 18.9462 70.9464 19.8458C70.9084 20.6778 70.7694 21.1293 70.6526 21.4298C70.4979 21.828 70.3127 22.1116 70.014 22.4101C69.7153 22.7087 69.4318 22.8936 69.0334 23.0483C68.7329 23.1656 68.281 23.3043 67.449 23.3423C66.5494 23.3832 66.2792 23.3921 64.0008 23.3921C61.7222 23.3921 61.4521 23.3832 60.5526 23.3423C59.7205 23.3039 59.269 23.1649 58.968 23.0481C58.5698 22.8935 58.2853 22.7086 57.9867 22.4099C57.688 22.1112 57.5031 21.8275 57.3481 21.4291C57.2313 21.1286 57.0921 20.6771 57.0542 19.8451C57.0133 18.9455 57.0051 18.6753 57.0051 16.3965C57.0051 14.1177 57.0133 13.8489 57.0542 12.9493C57.0923 12.1173 57.2313 11.6658 57.3481 11.365C57.5027 10.9668 57.688 10.6823 57.9867 10.3836C58.2853 10.085 58.5698 9.90007 58.968 9.74505C59.2688 9.62772 59.7205 9.48905 60.5526 9.45082C61.3398 9.41527 61.6448 9.4046 63.2353 9.40282V9.40496ZM68.5558 10.8219C67.9905 10.8219 67.5318 11.28 67.5318 11.8455C67.5318 12.4109 67.9905 12.8695 68.5558 12.8695C69.1212 12.8695 69.5799 12.4109 69.5799 11.8455C69.5799 11.2802 69.1212 10.8219 68.5558 10.8219ZM64.0008 12.0183C61.5807 12.0183 59.6186 13.9805 59.6186 16.4006C59.6186 18.8207 61.5807 20.782 64.0008 20.782C66.4209 20.782 68.3824 18.8207 68.3824 16.4006C68.3824 13.9805 66.4209 12.0183 64.0008 12.0183ZM64.0008 13.5561C65.5717 13.5561 66.8453 14.8295 66.8453 16.4006C66.8453 17.9714 65.5717 19.2451 64.0008 19.2451C62.4298 19.2451 61.1563 17.9714 61.1563 16.4006C61.1563 14.8295 62.4298 13.5561 64.0008 13.5561Z" fill="white"/>
<circle cx="112" cy="16.4004" r="16" fill="#4E4D4D"/>
<path d="M112 4.40039C105.373 4.40039 100 9.90886 100 16.7042C100 22.1403 103.438 26.7523 108.206 28.3792C108.806 28.4931 109.026 28.1123 109.026 27.7874C109.026 27.494 109.015 26.5247 109.01 25.4966C105.672 26.2409 104.967 24.045 104.967 24.045C104.421 22.6228 103.635 22.2447 103.635 22.2447C102.546 21.481 103.717 21.4967 103.717 21.4967C104.922 21.5835 105.556 22.7646 105.556 22.7646C106.627 24.6456 108.364 24.1018 109.048 23.7874C109.156 22.9922 109.467 22.4494 109.81 22.1422C107.145 21.8311 104.343 20.7761 104.343 16.0616C104.343 14.7183 104.812 13.6207 105.579 12.7591C105.455 12.4492 105.044 11.1978 105.696 9.503C105.696 9.503 106.703 9.17232 108.996 10.7642C109.954 10.4916 110.98 10.3549 112 10.3502C113.02 10.3549 114.047 10.4916 115.006 10.7642C117.297 9.17232 118.303 9.503 118.303 9.503C118.956 11.1978 118.545 12.4492 118.421 12.7591C119.19 13.6207 119.656 14.7183 119.656 16.0616C119.656 20.7873 116.848 21.8278 114.176 22.1324C114.607 22.5142 114.99 23.263 114.99 24.4109C114.99 26.0572 114.976 27.3821 114.976 27.7874C114.976 28.1148 115.192 28.4984 115.801 28.3776C120.566 26.7489 124 22.1385 124 16.7042C124 9.90886 118.627 4.40039 112 4.40039Z" fill="white"/>
<path d="M104.58 21.9815C104.554 22.0421 104.46 22.0602 104.375 22.0187C104.288 21.9789 104.239 21.8964 104.268 21.8357C104.293 21.7734 104.387 21.756 104.474 21.7978C104.561 21.8375 104.611 21.9208 104.58 21.9815Z" fill="white"/>
<path d="M105.066 22.5319C105.008 22.5857 104.897 22.5607 104.821 22.4756C104.743 22.3907 104.728 22.2771 104.786 22.2224C104.845 22.1686 104.953 22.1938 105.032 22.2787C105.11 22.3646 105.125 22.4774 105.066 22.5319Z" fill="white"/>
<path d="M105.538 23.2335C105.464 23.2854 105.344 23.2367 105.27 23.1284C105.197 23.0201 105.197 22.8902 105.272 22.8381C105.346 22.7861 105.464 22.8329 105.54 22.9404C105.613 23.0505 105.613 23.1805 105.538 23.2335Z" fill="white"/>
<path d="M106.185 23.9114C106.119 23.985 105.979 23.9652 105.877 23.8648C105.772 23.7665 105.743 23.6271 105.809 23.5535C105.875 23.4796 106.016 23.5004 106.119 23.6001C106.223 23.6981 106.255 23.8385 106.185 23.9114Z" fill="white"/>
<path d="M107.077 24.3049C107.048 24.4004 106.914 24.4437 106.778 24.4032C106.643 24.3614 106.554 24.2497 106.581 24.1532C106.61 24.0572 106.745 24.012 106.881 24.0554C107.017 24.097 107.106 24.2079 107.077 24.3049Z" fill="white"/>
<path d="M108.058 24.378C108.061 24.4784 107.946 24.5618 107.804 24.5636C107.66 24.5668 107.545 24.4855 107.543 24.3867C107.543 24.2852 107.655 24.2027 107.799 24.2002C107.941 24.1974 108.058 24.2781 108.058 24.378Z" fill="white"/>
<path d="M108.97 24.22C108.987 24.3181 108.888 24.4187 108.747 24.4456C108.607 24.4714 108.479 24.4109 108.461 24.3136C108.444 24.2132 108.545 24.1125 108.683 24.0865C108.825 24.0614 108.952 24.1204 108.97 24.22Z" fill="white"/>
<path fill-rule="evenodd" clip-rule="evenodd" d="M144 16.4004C144 7.56384 151.163 0.400391 160 0.400391C168.837 0.400391 176 7.56384 176 16.4004C176 25.2369 168.837 32.4004 160 32.4004C151.163 32.4004 144 25.2369 144 16.4004Z" fill="#4E4D4D"/>
<path d="M155.546 10.2822C155.522 9.21399 154.758 8.40039 153.518 8.40039C152.278 8.40039 151.467 9.21399 151.467 10.2822C151.467 11.3283 152.254 12.1653 153.471 12.1653H153.494C154.758 12.1653 155.546 11.3283 155.546 10.2822Z" fill="white"/>
<path d="M155.307 13.6523H151.681V24.5468H155.307V13.6523Z" fill="white"/>
<path d="M164.209 13.3965C166.595 13.3965 168.384 14.9539 168.384 18.3002L168.383 24.5468H164.758V18.7182C164.758 17.2542 164.233 16.2552 162.92 16.2552C161.919 16.2552 161.322 16.9287 161.06 17.5792C160.964 17.8123 160.94 18.1371 160.94 18.4627V24.5471H157.314C157.314 24.5471 157.362 14.6749 157.314 13.6526H160.94V15.1957C161.422 14.4539 162.284 13.3965 164.209 13.3965Z" fill="white"/>
</g>
<defs>
<clipPath id="clip0_1164_3088">
<rect width="176" height="32" fill="white" transform="translate(0 0.400391)"/>
</clipPath>
</defs>
</svg>
